<svg xmlns="http://www.w3.org/2000/svg" xmlns:xlink="http://www.w3.org/1999/xlink" preserveAspectRatio="xMidYMid" width="39" height="46" viewBox="0 0 39 46">
  <defs>
    <style>
      .cls-1 {
        fill: #fff;
        fill-rule: evenodd;
      }
    </style>
  </defs>
  <path d="M20.146,45.755 C19.959,45.911 19.728,45.990 19.497,45.990 C19.267,45.990 19.036,45.911 18.849,45.755 C18.079,45.106 -0.003,29.740 -0.003,19.296 C-0.003,8.663 8.744,0.013 19.497,0.013 C30.249,0.013 38.996,8.663 38.996,19.296 C38.996,29.740 20.916,45.106 20.146,45.755 ZM19.497,1.991 C9.848,1.991 1.996,9.754 1.996,19.296 C1.996,27.791 16.257,40.832 19.497,43.687 C22.739,40.830 36.997,27.791 36.997,19.296 C36.997,9.754 29.146,1.991 19.497,1.991 ZM19.497,28.195 C14.535,28.195 10.499,24.203 10.499,19.296 C10.499,14.389 14.535,10.397 19.497,10.397 C24.460,10.397 28.496,14.389 28.496,19.296 C28.496,24.203 24.460,28.195 19.497,28.195 ZM19.497,12.375 C15.639,12.375 12.498,15.480 12.498,19.296 C12.498,23.112 15.639,26.217 19.497,26.217 C23.356,26.217 26.496,23.112 26.496,19.296 C26.496,15.480 23.356,12.375 19.497,12.375 Z" class="cls-1"/>
</svg>
