<svg xmlns="http://www.w3.org/2000/svg" xmlns:xlink="http://www.w3.org/1999/xlink" preserveAspectRatio="xMidYMid" width="34" height="47" viewBox="0 0 34 47">
  <defs>
    <style>
      .cls-1 {
        fill: #fff;
        fill-rule: evenodd;
      }
    </style>
  </defs>
  <path d="M33.321,46.012 C33.284,46.568 32.827,47.001 32.278,47.001 L17.456,47.001 C17.292,47.001 17.136,46.955 16.993,46.883 C16.849,46.955 16.693,47.001 16.530,47.001 L1.712,47.001 C1.163,47.001 0.708,46.570 0.669,46.014 C0.457,42.922 0.251,39.819 0.049,36.775 L-0.002,35.995 C-0.218,32.739 2.287,28.976 5.470,27.780 C8.140,26.810 10.937,26.182 13.796,25.910 C14.387,25.885 14.851,26.258 14.928,26.818 L16.993,41.680 L19.060,26.818 C19.137,26.256 19.676,25.873 20.192,25.910 C23.058,26.184 25.856,26.812 28.510,27.778 C32.042,29.098 34.192,33.094 33.990,35.999 L33.321,46.012 ZM2.083,35.852 L2.134,36.632 C2.313,39.351 2.497,42.116 2.687,44.878 L9.785,44.878 L7.573,38.882 C7.457,38.565 7.494,38.213 7.675,37.931 L9.191,35.564 L7.192,34.922 C6.667,34.754 6.361,34.202 6.490,33.662 L7.521,29.331 C7.072,29.471 6.625,29.613 6.184,29.773 C3.672,30.718 1.944,33.763 2.083,35.852 ZM13.000,28.134 C11.927,28.269 10.866,28.465 9.820,28.706 L8.750,33.197 L11.129,33.960 C11.441,34.060 11.688,34.302 11.798,34.613 C11.909,34.926 11.868,35.272 11.690,35.550 L9.713,38.638 L12.015,44.878 L15.328,44.878 L13.000,28.134 ZM24.166,28.706 C23.121,28.465 22.062,28.270 20.988,28.134 L18.658,44.878 L21.971,44.878 L24.276,38.638 L22.299,35.550 C22.122,35.272 22.081,34.926 22.191,34.613 C22.302,34.302 22.549,34.060 22.861,33.960 L25.239,33.197 L24.166,28.706 ZM27.796,29.771 C27.358,29.613 26.913,29.470 26.467,29.331 L27.500,33.660 C27.629,34.202 27.323,34.754 26.798,34.922 L24.799,35.564 L26.315,37.931 C26.496,38.213 26.535,38.567 26.417,38.882 L24.201,44.878 L31.303,44.878 L31.905,35.854 C32.052,33.761 30.326,30.718 27.796,29.771 ZM16.995,20.720 C12.041,20.720 8.012,16.076 8.012,10.366 C8.012,4.656 12.041,0.009 16.995,0.009 C21.947,0.009 25.974,4.656 25.974,10.366 C25.974,16.076 21.947,20.720 16.995,20.720 ZM16.995,2.131 C13.194,2.131 10.101,5.825 10.101,10.366 C10.101,14.905 13.194,18.598 16.995,18.598 C20.794,18.598 23.885,14.905 23.885,10.366 C23.885,5.825 20.794,2.131 16.995,2.131 Z" class="cls-1"/>
</svg>
