<svg xmlns="http://www.w3.org/2000/svg" xmlns:xlink="http://www.w3.org/1999/xlink" preserveAspectRatio="xMidYMid" width="38.969" height="44.97" viewBox="0 0 38.969 44.97">
  <defs>
    <style>
      .cls-1 {
        fill: #fff;
        fill-rule: evenodd;
      }
    </style>
  </defs>
  <path d="M38.818,38.925 C38.648,39.217 38.334,39.402 37.992,39.410 L31.941,39.546 L28.624,44.538 C28.442,44.810 28.134,44.974 27.805,44.974 C27.794,44.974 27.782,44.974 27.769,44.974 C27.427,44.961 27.115,44.772 26.949,44.478 L19.745,31.683 C19.708,31.617 19.699,31.546 19.679,31.476 C19.608,31.477 19.540,31.487 19.470,31.487 C19.397,31.487 19.326,31.477 19.253,31.476 C19.233,31.545 19.224,31.617 19.187,31.683 L11.983,44.478 C11.816,44.772 11.505,44.961 11.163,44.974 C11.149,44.974 11.138,44.974 11.126,44.974 C10.797,44.974 10.490,44.810 10.308,44.538 L6.991,39.546 L0.940,39.410 C0.598,39.402 0.284,39.217 0.114,38.925 C-0.056,38.631 -0.060,38.271 0.106,37.975 L7.057,25.625 C4.838,22.920 3.502,19.483 3.502,15.740 C3.502,7.055 10.665,-0.010 19.470,-0.010 C28.270,-0.010 35.430,7.055 35.430,15.740 C35.430,19.483 34.094,22.921 31.875,25.626 L38.825,37.975 C38.992,38.271 38.988,38.631 38.818,38.925 ZM2.605,37.514 L7.551,37.626 C7.872,37.633 8.171,37.795 8.346,38.061 L11.057,42.143 L17.159,31.302 C13.810,30.820 10.799,29.319 8.459,27.116 L2.605,37.514 ZM19.470,1.921 C11.744,1.921 5.459,8.120 5.459,15.740 C5.459,23.358 11.744,29.555 19.470,29.555 C27.190,29.555 33.472,23.358 33.472,15.740 C33.472,8.120 27.190,1.921 19.470,1.921 ZM30.473,27.118 C28.134,29.321 25.122,30.822 21.773,31.303 L27.874,42.143 L30.585,38.061 C30.761,37.795 31.059,37.633 31.381,37.626 L36.327,37.514 L30.473,27.118 ZM19.470,25.370 C14.084,25.370 9.704,21.049 9.704,15.740 C9.704,10.427 14.084,6.106 19.470,6.106 C24.852,6.106 29.232,10.427 29.232,15.740 C29.232,21.049 24.852,25.370 19.470,25.370 ZM19.470,8.037 C15.164,8.037 11.662,11.493 11.662,15.740 C11.662,19.985 15.164,23.439 19.470,23.439 C23.773,23.439 27.274,19.985 27.274,15.740 C27.274,11.493 23.773,8.037 19.470,8.037 Z" class="cls-1"/>
</svg>
