<svg xmlns="http://www.w3.org/2000/svg" xmlns:xlink="http://www.w3.org/1999/xlink" preserveAspectRatio="xMidYMid" width="47.969" height="44" viewBox="0 0 47.969 44">
  <defs>
    <style>
      .cls-1 {
        fill: #fff;
        fill-rule: evenodd;
      }
    </style>
  </defs>
  <path d="M47.434,41.141 C47.394,41.728 46.924,42.183 46.356,42.183 L30.641,42.183 L30.589,42.958 C30.549,43.546 30.079,44.000 29.511,44.000 L1.684,44.000 C1.116,44.000 0.646,43.546 0.605,42.958 L-0.007,33.667 C-0.205,30.592 2.115,27.041 5.061,25.914 C11.860,23.396 19.352,23.405 26.125,25.912 C26.311,25.983 26.486,26.089 26.666,26.178 C32.154,24.412 38.137,24.535 43.547,26.537 C46.122,27.517 48.135,30.603 47.954,33.278 L47.434,41.141 ZM5.800,28.015 C3.567,28.871 2.028,31.628 2.150,33.519 L2.693,41.763 L28.502,41.763 L29.044,33.519 C29.173,31.625 27.639,28.871 25.389,28.013 C19.101,25.685 12.104,25.680 5.800,28.015 ZM42.810,28.640 C38.360,26.991 33.485,26.729 28.894,27.857 C30.387,29.465 31.338,31.664 31.201,33.672 L30.788,39.946 L45.347,39.946 L45.797,33.126 C45.900,31.612 44.619,29.326 42.810,28.640 ZM34.730,22.533 C30.760,22.533 27.531,18.760 27.531,14.119 C27.531,9.478 30.760,5.704 34.730,5.704 C38.698,5.704 41.926,9.478 41.926,14.119 C41.926,18.760 38.698,22.533 34.730,22.533 ZM34.730,7.940 C31.953,7.940 29.692,10.711 29.692,14.119 C29.692,17.525 31.953,20.297 34.730,20.297 C37.506,20.297 39.764,17.525 39.764,14.119 C39.764,10.711 37.506,7.940 34.730,7.940 ZM15.779,19.471 C11.199,19.471 7.471,15.103 7.471,9.735 C7.471,4.365 11.199,-0.003 15.779,-0.003 C20.357,-0.003 24.082,4.365 24.082,9.735 C24.082,15.103 20.357,19.471 15.779,19.471 ZM15.779,2.233 C12.389,2.233 9.633,5.599 9.633,9.735 C9.633,13.872 12.389,17.235 15.779,17.235 C19.166,17.235 21.921,13.872 21.921,9.735 C21.921,5.599 19.166,2.233 15.779,2.233 Z" class="cls-1"/>
</svg>
